<?xml version="1.0" encoding="iso-8859-1"?>
<!-- Generator: Adobe Illustrator 19.0.0, SVG Export Plug-In . SVG Version: 6.00 Build 0)  -->
<svg version="1.1" id="Capa_1" xmlns="http://www.w3.org/2000/svg" xmlns:xlink="http://www.w3.org/1999/xlink" x="0px" y="0px"
	 viewBox="0 0 496.485 496.485" style="enable-background:new 0 0 496.485 496.485;" xml:space="preserve">
<circle style="fill:#F16051;" cx="223.375" cy="155.152" r="155.152"/>
<rect x="48.829" y="165.236" style="fill:#2EA2DB;" width="399.515" height="280.048"/>
<path style="fill:#193651;" d="M449.12,452.267H48.829c-3.879,0-6.982-3.103-6.982-6.982V165.236c0-3.879,3.103-6.982,6.982-6.982
	h399.515c3.879,0,6.982,3.103,6.982,6.982v280.048C456.102,449.164,452.999,452.267,449.12,452.267z M56.587,437.527h384.776
	V172.218H56.587V437.527z"/>
<g>
	<rect x="78.23" y="193.877" style="fill:#FFFFFF;" width="341.333" height="250.57"/>
	<path style="fill:#FFFFFF;" d="M306.381,422.788v22.497H191.569v-22.497H22.453v30.255c0,20.17,16.291,36.461,36.461,36.461H438.26
		c20.17,0,36.461-16.291,36.461-36.461v-30.255L306.381,422.788L306.381,422.788z"/>
</g>
<g>
	<path style="fill:#193651;" d="M439.035,496.485H58.914c-24.048,0-43.442-19.394-43.442-43.442v-30.255
		c0-3.879,3.103-6.982,6.982-6.982h168.339c3.879,0,6.982,3.103,6.982,6.982v14.739h100.848v-14.739
		c0-3.879,3.103-6.982,6.982-6.982h168.339c3.879,0,6.982,3.103,6.982,6.982v30.255
		C482.478,477.091,463.084,496.485,439.035,496.485z M30.211,429.77v23.273c0,16.291,13.188,29.479,29.479,29.479h379.345
		c16.291,0,29.479-13.188,29.479-29.479V429.77H314.138v14.739c0,3.879-3.103,6.982-6.982,6.982H191.569
		c-3.879,0-6.982-3.103-6.982-6.982V429.77H30.211z"/>
	<rect x="64.344" y="448.388" style="fill:#193651;" width="14.739" height="14.739"/>
</g>
<rect x="102.356" y="448.388" style="fill:#193651;" width="14.739" height="14.739"/>
<g>
	<rect x="140.369" y="448.388" style="fill:#193651;" width="14.739" height="14.739"/>
	<rect x="342.841" y="448.388" style="fill:#193651;" width="14.739" height="14.739"/>
	<rect x="380.853" y="448.388" style="fill:#193651;" width="14.739" height="14.739"/>
	<rect x="418.866" y="448.388" style="fill:#193651;" width="14.739" height="14.739"/>
	<path style="fill:#193651;" d="M411.108,172.218H204.756c-3.879,0-6.982-3.103-6.982-6.982s3.103-6.982,6.982-6.982h206.352
		c3.879,0,6.982,3.103,6.982,6.982C418.09,169.115,414.987,172.218,411.108,172.218z"/>
	<rect x="109.338" y="383.224" style="fill:#193651;" width="113.261" height="10.861"/>
	<rect x="109.338" y="351.418" style="fill:#193651;" width="113.261" height="10.861"/>
	<rect x="109.338" y="319.612" style="fill:#193651;" width="113.261" height="10.861"/>
	<rect x="109.338" y="287.806" style="fill:#193651;" width="113.261" height="10.861"/>
	<rect x="109.338" y="256" style="fill:#193651;" width="113.261" height="10.861"/>
	<rect x="109.338" y="224.194" style="fill:#193651;" width="113.261" height="10.861"/>
	<rect x="275.35" y="383.224" style="fill:#193651;" width="113.261" height="10.861"/>
	<rect x="275.35" y="351.418" style="fill:#193651;" width="113.261" height="10.861"/>
	<rect x="275.35" y="319.612" style="fill:#193651;" width="113.261" height="10.861"/>
	<rect x="275.35" y="287.806" style="fill:#193651;" width="113.261" height="10.861"/>
	<rect x="275.35" y="256" style="fill:#193651;" width="113.261" height="10.861"/>
	<rect x="275.35" y="224.194" style="fill:#193651;" width="113.261" height="10.861"/>
</g>
<path style="fill:#E1E6E9;" d="M282.332,193.164c-6.206-5.43-14.739-4.655-20.17,0.776c-5.43,5.43-5.43,13.964-0.776,20.17
	l99.297,114.812c9.309,10.861,26.376,11.636,37.236,1.552c10.085-10.085,10.085-27.152-1.552-37.236L282.332,193.164z"/>
<path style="fill:#193651;" d="M380.078,345.212c-9.309,0-18.618-3.879-24.824-10.861l-99.297-115.588
	c-7.758-8.533-6.982-21.721,0.776-30.255c7.758-7.758,21.721-8.533,30.255-0.776l114.812,99.297
	c6.982,6.206,10.861,14.739,10.861,23.273c0,9.309-3.103,17.842-9.309,24.048C397.144,341.333,388.611,345.212,380.078,345.212z
	 M272.247,197.042c-2.327,0-3.879,0.776-5.43,2.327c-3.103,3.103-3.103,6.982,0,10.085l99.297,114.812
	c6.206,7.758,19.394,7.758,26.376,0.776c3.879-3.879,5.43-8.533,5.43-13.188c0-4.655-2.327-9.309-6.206-13.188L276.902,199.37
	C276.126,197.818,273.799,197.042,272.247,197.042z"/>
<path style="fill:#FDBF5E;" d="M439.035,330.473L307.932,216.436c-6.982-5.43-17.067-5.43-23.273,0.776
	c-6.206,6.206-6.206,16.291-0.776,23.273L397.92,371.588c10.861,12.412,30.255,13.188,42.667,1.552
	C452.223,360.727,451.447,341.333,439.035,330.473z"/>
<path style="fill:#193651;" d="M419.641,388.655L419.641,388.655c-10.861,0-20.17-4.655-27.152-12.412L278.453,245.139
	c-8.533-9.309-7.758-24.048,0.776-32.582c8.533-8.533,23.273-9.309,32.582-0.776l131.103,114.036
	c15.515,13.964,17.067,38.012,1.552,52.751C439.035,384.776,429.726,388.655,419.641,388.655z M297.072,219.539
	c-2.327,0-4.655,0.776-6.982,3.103c-3.879,3.879-3.879,9.309-0.776,13.188L403.35,366.933c8.533,9.309,22.497,10.085,31.806,0.776
	c8.533-8.533,8.533-23.273-0.776-31.806L303.278,221.867C300.95,220.315,298.623,219.539,297.072,219.539z"/>
<path style="fill:#FFFFFF;" d="M343.617,155.152c0,65.939-53.527,119.467-119.467,119.467s-119.467-53.527-119.467-119.467
	S157.435,35.685,223.375,35.685C290.09,35.685,343.617,89.212,343.617,155.152z"/>
<path style="fill:#193651;" d="M223.375,282.376c-69.818,0-127.224-56.63-127.224-126.448S153.556,28.703,223.375,28.703
	s127.224,56.63,127.224,126.448S293.969,282.376,223.375,282.376L223.375,282.376z M223.375,43.442
	c-62.061,0-112.485,50.424-112.485,112.485s50.424,112.485,112.485,112.485v6.982v-6.982c62.061,0,112.485-50.424,112.485-112.485
	C335.859,93.091,285.435,43.442,223.375,43.442z"/>
<path style="fill:#E1E6E9;" d="M223.375,251.345c-52.752,0-95.418-42.667-95.418-95.418s43.442-96.194,96.194-96.194
	s96.194,42.667,96.194,95.418C319.569,207.903,276.126,251.345,223.375,251.345L223.375,251.345z"/>
<path style="fill:#FFFFFF;" d="M284.659,155.152c-3.879,0-6.982-3.103-6.982-6.982c0-26.376-21.721-47.321-48.097-47.321
	c-3.879,0-6.982-3.103-6.982-6.982c0-3.879,3.103-6.982,6.982-6.982c34.133,0,62.061,27.927,62.061,61.285
	C291.641,152.048,288.538,155.152,284.659,155.152z"/>
<g>
	<path style="fill:#193651;" d="M222.599,224.194H156.66c3.879,3.879,8.533,7.758,13.188,10.861h52.752L222.599,224.194
		L222.599,224.194z"/>
	<path style="fill:#193651;" d="M222.599,188.509h-89.212c1.552,3.879,3.103,6.982,4.655,10.861h84.558V188.509z"/>
	<path style="fill:#193651;" d="M222.599,153.6h-94.642c0,0.776,0,1.552,0,2.327c0,3.103,0,5.43,0.776,8.533h94.642V153.6H222.599z"
		/>
	<path style="fill:#193651;" d="M222.599,117.915h-86.885c-1.552,3.103-3.103,6.982-3.879,10.861h91.539v-10.861H222.599z"/>
</g>
<g>
</g>
<g>
</g>
<g>
</g>
<g>
</g>
<g>
</g>
<g>
</g>
<g>
</g>
<g>
</g>
<g>
</g>
<g>
</g>
<g>
</g>
<g>
</g>
<g>
</g>
<g>
</g>
<g>
</g>
</svg>
